<svg xmlns="http://www.w3.org/2000/svg" width="217" height="94"><g><path d="M215.587 46.329c-1.213-5.257-5.904-11.23-10.859-13.823-6.387-3.336-14.02-3.336-20.407 0-4.959 2.593-9.651 8.566-10.858 13.823-.542 2.355-.553 8.269-.01 10.598 1.789 7.765 8.624 14.221 16.976 16.033.894.196 3.201.288 5.117.2 9.525-.425 17.465-6.793 19.928-15.984.65-2.422.708-8.253.113-10.847zm-16.571 23.941c-12.841 3.34-25.567-8.217-23.544-21.381 1.065-6.912 6.078-13.006 12.632-15.352 2.893-1.031 7.442-1.373 10.271-.764 7.653 1.638 14.006 8.373 15.197 16.117 1.466 9.534-4.887 18.86-14.557 21.381z" fill="#414142"/><path d="M144.58 72.882c-5.918-.752-10.487-2.345-10.487-3.643 0-1.28.853-1.329 4.139-.239 6.392 2.125 18.105 2.5 23.002.743 3.064-1.103 5.751-2.978 6.881-4.8 1.256-2.031.997-5.26-.582-7.333-2.423-3.17-8.786-5.184-18.183-5.746-4.867-.293-5.008-.327-5.008-1.245 0-1.013.24-1.084 5.531-1.636 3.319-.344 8.566-1.695 10.615-2.735 2.893-1.457 4.012-2.447 4.818-4.278 1.407-3.177-.136-6.095-4.188-7.884-4.725-2.085-13.907-2.178-20.187-.2-3.069.967-3.67 1.05-3.988.552-.715-1.136-.372-1.563 1.97-2.446 4.036-1.529 8.4-2.129 13.624-1.873 7.262.356 11.639 1.868 14.074 4.872 1.04 1.287 1.28 1.992 1.421 4.195.098 1.58-.044 3.149-.346 3.882-.768 1.866-4.217 4.725-6.968 5.792-1.344.523-2.443 1.082-2.443 1.241 0 .164.782.493 1.739.74 5.209 1.333 9.172 4 10.595 7.145 1.617 3.555.65 7.775-2.423 10.539-3.709 3.345-8.776 4.86-16.024 4.782-2.61-.031-6.022-.223-7.579-.423z" fill="#414142"/><path d="M17.721 72.745c-3.47-.757-7.268-2.779-9.908-5.265-2.841-2.68-4.344-4.873-5.739-8.351-1.082-2.701-1.109-2.971-1.06-10.754.054-9.23.926-15.225 3.173-21.779 1.767-5.159 3.531-8.102 6.812-11.386 5.974-5.985 13.377-8.268 30.519-9.423 10.702-.721 14.474-1.631 16.436-3.96.643-.757 1.102-.958 1.742-.752 1.356.427 1.036 1.65-.851 3.268-2.803 2.396-6.308 3.157-18.149 3.932-19.117 1.253-27.208 4.847-32.105 14.265-3.215 6.165-4.882 13.972-5.252 24.654-.219 6.153-.156 7.065.625 9.637 4.002 13.186 19.216 18.259 30.094 10.032 9.297-7.03 10.216-20.548 1.952-28.725-7.162-7.081-17.958-7.648-25.734-1.348-1.881 1.521-3.1 1.636-3.293.303-.137-.948 3.413-3.836 6.308-5.137 6.67-3.004 14.714-2.438 20.851 1.47 2.612 1.665 6.387 5.738 7.565 8.161.493 1.03 1.06 1.97 1.261 2.094.196.12.87-.845 1.5-2.148 3.21-6.628 11.479-11.592 19.292-11.575 9.201.03 17.894 6.386 20.573 15.056.733 2.371.811 3.817.811 14.664v12.038h-2.047l-.007-10.544c-.004-7.57-.169-11.323-.596-13.316-2.265-10.703-13.16-17.606-23.463-14.866-3.425.91-5.751 2.231-8.552 4.852-11.068 10.346-6.198 28.555 8.669 32.428 5.903 1.539 11.576.17 17.032-4.093 2.069-1.621 2.378-1.741 3.071-1.226 1.051.779.535 1.563-2.604 3.956-5.766 4.395-13.497 5.552-20.392 3.052-5.148-1.871-9.065-5.255-11.625-10.06-.728-1.363-1.491-2.379-1.691-2.254-.2.121-.948 1.311-1.657 2.645-.709 1.332-2.429 3.513-3.821 4.85-5.385 5.172-12.48 7.184-19.742 5.607z" fill="#414142"/><path d="M90.263 70.528c0-21.18.044-22.624.802-25.078 3.406-11.015 14.613-17.501 25.728-14.883 9.817 2.315 16.646 10.964 16.646 21.085 0 7.697-3.645 14.231-10.293 18.445-6.503 4.117-16.231 4.127-22.703.03-4.295-2.721-5.918-4.982-4.017-5.585.625-.197 1.297.155 2.624 1.38 9.46 8.713 24.88 5.397 30.304-6.525 5.701-12.529-3.701-26.945-17.587-26.975-4.869-.01-9.185 1.729-12.957 5.219-2.693 2.488-3.988 4.454-5.358 8.106-.886 2.371-.907 2.881-1.048 24.839l-.147 22.415h-1.993v-22.472z" fill="#414142"/><path d="M21.098 52.952c-.879-.977-.856-1.829.073-2.666.941-.855 1.874-.864 2.702-.034 1.232 1.222.347 3.448-1.373 3.448-.395 0-1.025-.337-1.401-.747z" fill="#bf202f"/><path d="M62.885 53.181c-1.161-.845-.767-2.847.662-3.343.946-.332 1.288-.246 2.047.51.851.855.867.986.278 2.026-.712 1.283-1.901 1.603-2.987.806z" fill="#bf202f"/></g></svg>